<svg width="205" height="116" fill="none" xmlns="http://www.w3.org/2000/svg"><g filter="url('#filter0_b_1_32')"><mask id="path-1-inside-1_1_32" fill="#fff"><path fill-rule="evenodd" clip-rule="evenodd" d="M24 0C10.745 0 0 10.745 0 24v55c0 13.255 10.745 24 24 24h65.712c.02.037.042.073.064.109l6.47 10.704c1.593 2.635 5.441 2.558 6.927-.139l5.88-10.674H181c13.255 0 24-10.745 24-24V24c0-13.255-10.745-24-24-24H24Z"/></mask><path fill-rule="evenodd" clip-rule="evenodd" d="M24 0C10.745 0 0 10.745 0 24v55c0 13.255 10.745 24 24 24h65.712c.02.037.042.073.064.109l6.47 10.704c1.593 2.635 5.441 2.558 6.927-.139l5.88-10.674H181c13.255 0 24-10.745 24-24V24c0-13.255-10.745-24-24-24H24Z" fill="#FFFDFD" fill-opacity=".2"/><path d="m89.712 103 .87-.492-.286-.508h-.584v1Zm.064.109.856-.517-.856.517Zm6.47 10.704.856-.517-.856.517Zm6.927-.139-.876-.483.876.483Zm5.88-10.674v-1h-.591l-.285.518.876.482ZM1 24C1 11.297 11.297 1 24 1v-2C10.193-1-1 10.193-1 24h2Zm0 55V24h-2v55h2Zm23 23C11.297 102 1 91.703 1 79h-2c0 13.807 11.193 25 25 25v-2Zm65.712 0H24v2h65.712v-2Zm.92.592a3.633 3.633 0 0 1-.05-.084l-1.74.984c.025.045.05.09.078.135l1.712-1.035Zm6.47 10.704-6.47-10.704-1.712 1.035 6.47 10.704 1.712-1.035Zm5.195-.105c-1.114 2.023-4 2.081-5.195.105l-1.712 1.035c1.992 3.294 6.802 3.197 8.659-.175l-1.752-.965Zm5.88-10.673-5.88 10.673 1.752.965 5.88-10.674-1.752-.964ZM181 102h-71.947v2H181v-2Zm23-23c0 12.703-10.297 23-23 23v2c13.807 0 25-11.193 25-25h-2Zm0-55v55h2V24h-2ZM181 1c12.703 0 23 10.297 23 23h2c0-13.807-11.193-25-25-25v2ZM24 1h157v-2H24v2Z" fill="#fff" mask="url('#path-1-inside-1_1_32')"/></g><defs><filter id="filter0_b_1_32" x="-4" y="-4" width="213" height="123.744" filterUnits="userSpaceOnUse" color-interpolation-filters="sRGB"><feFlood flood-opacity="0" result="BackgroundImageFix"/><feGaussianBlur in="BackgroundImageFix" stdDeviation="2"/><feComposite in2="SourceAlpha" operator="in" result="effect1_backgroundBlur_1_32"/><feBlend in="SourceGraphic" in2="effect1_backgroundBlur_1_32" result="shape"/></filter></defs></svg>