<svg aria-hidden="true" style="width:0;height:0;position:absolute;overflow:hidden" xmlns="http://www.w3.org/2000/svg"><defs><symbol id="icon-bag" viewBox="0 0 32 32"><path fill="#fff" style="fill:var(--color1,#fff)" d="M9.263 7.338C9.263 3.617 12.277.601 16 .601s6.737 3.016 6.737 6.737v2.887h3.85a2.888 2.888 0 0 1 2.887 2.887v12.511a5.775 5.775 0 0 1-5.774 5.774H8.301a5.775 5.775 0 0 1-5.774-5.774V13.112a2.888 2.888 0 0 1 2.887-2.887h3.85V7.338zm2.887 2.888h7.699V7.339a3.851 3.851 0 0 0-7.7 0v2.887zM10.707 16c.8 0 1.444-.644 1.444-1.444s-.644-1.444-1.444-1.444c-.8 0-1.444.644-1.444 1.444S9.907 16 10.707 16zm10.586-2.887c-.8 0-1.444.644-1.444 1.444s.644 1.444 1.444 1.444c.8 0 1.444-.644 1.444-1.444s-.644-1.444-1.444-1.444z"/></symbol><symbol id="icon-box" viewBox="0 0 32 32"><path stroke-linejoin="round" stroke-linecap="round" stroke-width="1.524" d="M14.705 3.387a2.667 2.667 0 0 1 2.59 0l10.02 5.565A1.329 1.329 0 0 1 28 10.117v10.98a2.677 2.677 0 0 1-1.372 2.331l-9.333 5.187a2.667 2.667 0 0 1-2.59 0l-9.333-5.187A2.66 2.66 0 0 1 4 21.099V10.118a1.328 1.328 0 0 1 .685-1.165l10.02-5.565z"/><path stroke-linejoin="round" stroke-linecap="round" stroke-width="1.524" d="m10 6 12 6.667v4.667m-14-.897 4 2.229"/><path stroke-linejoin="round" stroke-width="1.524" d="M4 9.333 16 16m0 0 12-6.667M16 16v13.333"/></symbol><symbol id="icon-drop" viewBox="0 0 32 32"><path stroke-linejoin="round" stroke-linecap="round" stroke-width="2.064" d="M16 30.624A11.698 11.698 0 0 1 4.301 18.925c0-5.121 3.963-9.217 7.448-12.971L16 1.377l4.251 4.577c3.485 3.755 7.448 7.851 7.448 12.971A11.698 11.698 0 0 1 16 30.624z"/></symbol><symbol id="icon-plant" viewBox="0 0 32 32"><path stroke-linejoin="round" stroke-linecap="round" stroke-width="2.17" d="M16.102 14.475c0 2.881-1.729 6.915-1.729 6.915m.576-5.763s1.729-4.61-2.305-8.068S2.271 5.254 2.271 5.254s0 4.61 3.458 8.068 9.22 2.305 9.22 2.305zm2.305-3.458s-1.729-4.61 2.305-8.068 10.373-2.305 10.373-2.305 0 4.61-3.458 8.068-9.22 2.305-9.22 2.305zm-9.22 8.068h14.983S24.17 30.61 15.525 30.61 8.033 20.237 8.033 20.237z"/></symbol><symbol id="icon-search" viewBox="0 0 32 32"><path fill="none" stroke="#fff" style="stroke:var(--color1,#fff)" stroke-linejoin="round" stroke-linecap="round" stroke-width="3.31" d="M26.257 26.392v0zm-5.227-5.226A9.034 9.034 0 1 0 8.253 8.392 9.034 9.034 0 0 0 21.03 21.166v0z"/></symbol><symbol id="icon-sun" viewBox="0 0 32 32"><path fill="none" stroke-linejoin="round" stroke-linecap="round" stroke-width="1.882" d="M16 2v2.1"/><path d="M25.9 6.1z"/><path fill="none" stroke-linejoin="round" stroke-linecap="round" stroke-width="1.882" d="m25.9 6.1-1.485 1.485"/><path fill="none" stroke="#000" style="stroke:var(--color2,#000)" stroke-linejoin="round" stroke-linecap="round" stroke-width="1.882" d="M30 16h-2.1"/><path d="M25.9 25.9z"/><path fill="none" stroke="#000" style="stroke:var(--color2,#000)" stroke-linejoin="round" stroke-linecap="round" stroke-width="1.882" d="m25.9 25.9-1.485-1.485M16 30v-2.1"/><path d="M6.1 25.9z"/><path fill="none" stroke="#000" style="stroke:var(--color2,#000)" stroke-linejoin="round" stroke-linecap="round" stroke-width="1.882" d="m6.1 25.9 1.485-1.485M2 16h2.1"/><path d="M6.1 6.1z"/><path fill="none" stroke="#000" style="stroke:var(--color2,#000)" stroke-linejoin="round" stroke-linecap="round" stroke-width="1.882" d="m6.1 6.1 1.485 1.485"/><path fill="none" stroke-linejoin="round" stroke-width="1.882" d="M16 24a8 8 0 1 0 0-16 8 8 0 0 0 0 16z"/></symbol><symbol id="icon-support" viewBox="0 0 32 32"><path d="M26.584 11.048H28a2.668 2.668 0 0 1 2.667 2.667v5.333A2.668 2.668 0 0 1 28 21.715h-1.416A10.672 10.672 0 0 1 16 31.049v-2.667a8 8 0 0 0 8-8v-8a8 8 0 1 0-16 0v9.333H4a2.668 2.668 0 0 1-2.667-2.667v-5.333A2.668 2.668 0 0 1 4 11.048h1.416A10.664 10.664 0 0 1 16 1.716a10.667 10.667 0 0 1 10.584 9.332zM4 13.714v5.333h1.333v-5.333H4zm22.667 0v5.333H28v-5.333h-1.333zm-16.32 7.714 1.413-2.261A7.966 7.966 0 0 0 16 20.382a7.966 7.966 0 0 0 4.24-1.215l1.413 2.261A10.613 10.613 0 0 1 16 23.048a10.613 10.613 0 0 1-5.653-1.62z"/></symbol><symbol id="icon-thermometer" viewBox="0 0 32 32"><path stroke-linejoin="round" stroke-linecap="round" stroke-width="2.286" d="M12.762 11.143h6.476m-6.476 7.286a6.472 6.472 0 0 0-3.017 7.284 6.478 6.478 0 0 0 10.197 3.462 6.478 6.478 0 0 0-.704-10.746V4.667A3.24 3.24 0 0 0 16 1.429a3.24 3.24 0 0 0-3.238 3.238v13.762z"/></symbol><symbol id="icon-wallet" viewBox="0 0 32 32"><path d="M15.888 1.022a2.42 2.42 0 0 1 1.645-.901 2.438 2.438 0 0 1 1.798.536l7.942 6.486a2.435 2.435 0 0 1 .608 3.032 7.305 7.305 0 0 0-2.143-.319h-.73l.726-.828-4.183-3.416-3.45 4.246h-3.138l4.702-5.785-1.875-1.531-5.839 7.314H8.835l7.054-8.833zm6.199 21.007a1.22 1.22 0 0 0-.861 2.079c.228.228.538.357.861.357h2.435a1.22 1.22 0 0 0 .861-2.079 1.219 1.219 0 0 0-.861-.357h-2.435zM3.826 11.072a1.22 1.22 0 0 1 1.218-1.218h1.359l1.936-2.435H5.045a3.656 3.656 0 0 0-3.652 3.652V25.68a6.085 6.085 0 0 0 6.087 6.087h18.261a4.87 4.87 0 0 0 4.869-4.869v-9.739a4.87 4.87 0 0 0-4.869-4.869H5.045a1.22 1.22 0 0 1-1.218-1.218zm0 14.609V14.518c.38.134.791.207 1.217.207h20.696a2.438 2.438 0 0 1 2.435 2.435v9.739a2.434 2.434 0 0 1-2.435 2.435H7.478a3.656 3.656 0 0 1-3.652-3.652z"/></symbol><symbol id="icon-search-1" viewBox="0 0 32 32"><path fill="none" stroke="#fff" style="stroke:var(--color3,#fff)" stroke-linejoin="round" stroke-linecap="round" stroke-width="2.667" d="M14.667 25.333c5.891 0 10.667-4.776 10.667-10.667S20.558 3.999 14.667 3.999 4 8.775 4 14.666s4.776 10.667 10.667 10.667zM28 28l-5.8-5.8"/></symbol><symbol id="icon-arrow" viewBox="0 0 32 32"><path fill-rule="evenodd" clip-rule="evenodd" d="M0 11a1.5 1.5 0 0 1 1.5-1.5h17.379l-6.441-6.438A1.502 1.502 0 1 1 14.562.938l9 9a1.5 1.5 0 0 1 0 2.124l-9 9a1.502 1.502 0 1 1-2.124-2.124l6.441-6.438H1.5A1.5 1.5 0 0 1 0 11Z" fill="#4F4F4F"/></symbol><symbol id="icon-stars" viewBox="0 0 154 32"><path fill="#f2c94c" style="fill:var(--color1,#f2c94c)" d="m27.243 10.945-7.617-1.107-3.405-6.903a.955.955 0 0 0-.435-.435.964.964 0 0 0-1.287.435l-3.405 6.903-7.617 1.107a.958.958 0 0 0-.531 1.638l5.511 5.373-1.302 7.587a.957.957 0 0 0 1.392 1.011l6.813-3.582 6.813 3.582a.959.959 0 0 0 1.392-1.011l-1.302-7.587 5.511-5.373a.958.958 0 0 0 .279-.549.957.957 0 0 0-.81-1.089zM57.963 10.945l-7.617-1.107-3.405-6.903a.955.955 0 0 0-.435-.435.964.964 0 0 0-1.287.435l-3.405 6.903-7.617 1.107a.958.958 0 0 0-.531 1.638l5.511 5.373-1.302 7.587a.957.957 0 0 0 1.392 1.011l6.813-3.582 6.813 3.582a.959.959 0 0 0 1.392-1.011l-1.302-7.587 5.511-5.373a.958.958 0 0 0 .279-.549.957.957 0 0 0-.81-1.089zM88.683 10.945l-7.617-1.107-3.405-6.903a.955.955 0 0 0-.435-.435.964.964 0 0 0-1.287.435l-3.405 6.903-7.617 1.107a.958.958 0 0 0-.531 1.638l5.511 5.373-1.302 7.587a.954.954 0 0 0 .876 1.119.972.972 0 0 0 .516-.108l6.813-3.582 6.813 3.582a.959.959 0 0 0 1.392-1.011l-1.302-7.587 5.511-5.373a.958.958 0 0 0 .279-.549.957.957 0 0 0-.81-1.089zM119.403 10.945l-7.617-1.107-3.405-6.903a.955.955 0 0 0-.435-.435.964.964 0 0 0-1.287.435l-3.405 6.903-7.617 1.107a.958.958 0 0 0-.531 1.638l5.511 5.373-1.302 7.587a.954.954 0 0 0 .876 1.119.972.972 0 0 0 .516-.108l6.813-3.582 6.813 3.582a.959.959 0 0 0 1.392-1.011l-1.302-7.587 5.511-5.373a.958.958 0 0 0 .279-.549.957.957 0 0 0-.81-1.089zM150.124 10.945l-7.617-1.107-3.405-6.903a.96.96 0 0 0-.435-.435.965.965 0 0 0-1.288.435l-3.405 6.903-7.617 1.107a.958.958 0 0 0-.531 1.638l5.511 5.373-1.302 7.587a.954.954 0 0 0 .875 1.119.961.961 0 0 0 .516-.108l6.813-3.582 6.813 3.582a.959.959 0 0 0 1.391-1.011l-1.302-7.587 5.51-5.373a.946.946 0 0 0 .279-.549.955.955 0 0 0-.809-1.089z"/></symbol><symbol id="icon-plus" viewBox="0 0 32 32"><path d="M16 .356C7.36.356.356 7.36.356 16S7.36 31.644 16 31.644 31.644 24.64 31.644 16 24.64.356 16 .356zm1.422 21.333a1.423 1.423 0 0 1-2.846 0v-4.267h-4.267a1.423 1.423 0 0 1 0-2.846h4.267v-4.267a1.423 1.423 0 0 1 2.846 0v4.267h4.267a1.423 1.423 0 0 1 0 2.846h-4.267v4.267z"/></symbol></defs></svg>