<svg aria-hidden="true" style="position: absolute; width: 0; height: 0; overflow: hidden;" version="1.1" xmlns="http://www.w3.org/2000/svg" xmlns:xlink="http://www.w3.org/1999/xlink">
<defs>
<symbol id="icon-bag" viewBox="0 0 32 32">
<path fill="#fff" style="fill: var(--color1, #fff)" d="M9.263 7.338c0-3.721 3.014-6.737 6.737-6.737s6.737 3.016 6.737 6.737v2.887h3.85c1.594 0 2.887 1.293 2.887 2.887v12.511c0 3.188-2.586 5.774-5.774 5.774h-15.399c-3.189 0-5.774-2.586-5.774-5.774v-12.511c0-1.594 1.293-2.887 2.887-2.887h3.85v-2.887zM12.15 10.226h7.699v-2.887c0-2.126-1.726-3.85-3.85-3.85s-3.85 1.723-3.85 3.85v2.887zM10.707 16c0.8 0 1.444-0.644 1.444-1.444s-0.644-1.444-1.444-1.444c-0.8 0-1.444 0.644-1.444 1.444s0.644 1.444 1.444 1.444zM21.293 13.113c-0.8 0-1.444 0.644-1.444 1.444s0.644 1.444 1.444 1.444c0.8 0 1.444-0.644 1.444-1.444s-0.644-1.444-1.444-1.444z"></path>
</symbol>
<symbol id="icon-box" viewBox="0 0 32 32">
<path stroke-linejoin="round" stroke-linecap="round" stroke-miterlimit="4" stroke-width="1.5238" d="M14.705 3.387c0.396-0.22 0.842-0.335 1.295-0.335s0.899 0.115 1.295 0.335l10.020 5.565c0.208 0.116 0.381 0.284 0.501 0.489s0.184 0.438 0.184 0.676v10.98c-0 0.476-0.127 0.942-0.369 1.352s-0.588 0.748-1.003 0.979l-9.333 5.187c-0.396 0.22-0.842 0.335-1.295 0.335s-0.899-0.115-1.295-0.335l-9.333-5.187c-0.416-0.231-0.762-0.568-1.003-0.978s-0.369-0.876-0.369-1.351v-10.981c0-0.238 0.063-0.471 0.184-0.676s0.294-0.374 0.501-0.489l10.020-5.565z"></path>
<path stroke-linejoin="round" stroke-linecap="round" stroke-miterlimit="4" stroke-width="1.5238" d="M10 6l12 6.667v4.667M8 16.437l4 2.229"></path>
<path stroke-linejoin="round" stroke-linecap="butt" stroke-miterlimit="4" stroke-width="1.5238" d="M4 9.333l12 6.667M16 16l12-6.667M16 16v13.333"></path>
</symbol>
<symbol id="icon-drop" viewBox="0 0 32 32">
<path stroke-linejoin="round" stroke-linecap="round" stroke-miterlimit="4" stroke-width="2.0645" d="M16 30.624c-3.103 0-6.078-1.233-8.272-3.427s-3.427-5.17-3.427-8.272c0-5.121 3.963-9.217 7.448-12.971l4.251-4.577 4.251 4.577c3.485 3.755 7.448 7.851 7.448 12.971 0 3.103-1.233 6.078-3.427 8.272s-5.17 3.427-8.272 3.427v0z"></path>
</symbol>
<symbol id="icon-plant" viewBox="0 0 32 32">
<path stroke-linejoin="round" stroke-linecap="round" stroke-miterlimit="4" stroke-width="2.1695" d="M16.102 14.475c0 2.881-1.729 6.915-1.729 6.915M14.949 15.627c0 0 1.729-4.61-2.305-8.068s-10.373-2.305-10.373-2.305c0 0 0 4.61 3.458 8.068s9.22 2.305 9.22 2.305zM17.254 12.169c0 0-1.729-4.61 2.305-8.068s10.373-2.305 10.373-2.305c0 0 0 4.61-3.458 8.068s-9.22 2.305-9.22 2.305zM8.034 20.237h14.983c0 0 1.153 10.373-7.492 10.373s-7.492-10.373-7.492-10.373z"></path>
</symbol>
<symbol id="icon-search" viewBox="0 0 32 32">
<path fill="none" stroke="#fff" style="stroke: var(--color1, #fff)" stroke-linejoin="round" stroke-linecap="round" stroke-miterlimit="4" stroke-width="3.3103" d="M26.257 26.392v0zM21.030 21.166c0.839-0.839 1.504-1.835 1.958-2.931s0.688-2.271 0.688-3.457-0.234-2.361-0.688-3.457c-0.454-1.096-1.119-2.092-1.958-2.931s-1.835-1.504-2.931-1.958c-1.096-0.454-2.271-0.688-3.457-0.688s-2.361 0.234-3.457 0.688c-1.096 0.454-2.092 1.12-2.931 1.958-1.694 1.694-2.646 3.992-2.646 6.388s0.952 4.694 2.646 6.388c1.694 1.694 3.992 2.646 6.388 2.646s4.694-0.952 6.388-2.646v0z"></path>
</symbol>
<symbol id="icon-sun" viewBox="0 0 32 32">
<path fill="none" stroke="#000" style="stroke: var(--color2, #000)" stroke-linejoin="round" stroke-linecap="round" stroke-miterlimit="4" stroke-width="1.8824" d="M16 2v2.1"></path>
<path d="M25.9 6.1v0z"></path>
<path fill="none" stroke="#000" style="stroke: var(--color2, #000)" stroke-linejoin="round" stroke-linecap="round" stroke-miterlimit="4" stroke-width="1.8824" d="M25.9 6.1l-1.485 1.485"></path>
<path fill="none" stroke="#000" style="stroke: var(--color2, #000)" stroke-linejoin="round" stroke-linecap="round" stroke-miterlimit="4" stroke-width="1.8824" d="M30 16h-2.1"></path>
<path d="M25.9 25.9v0z"></path>
<path fill="none" stroke="#000" style="stroke: var(--color2, #000)" stroke-linejoin="round" stroke-linecap="round" stroke-miterlimit="4" stroke-width="1.8824" d="M25.9 25.9l-1.485-1.485"></path>
<path fill="none" stroke="#000" style="stroke: var(--color2, #000)" stroke-linejoin="round" stroke-linecap="round" stroke-miterlimit="4" stroke-width="1.8824" d="M16 30v-2.1"></path>
<path d="M6.1 25.9v0z"></path>
<path fill="none" stroke="#000" style="stroke: var(--color2, #000)" stroke-linejoin="round" stroke-linecap="round" stroke-miterlimit="4" stroke-width="1.8824" d="M6.1 25.9l1.485-1.485"></path>
<path fill="none" stroke="#000" style="stroke: var(--color2, #000)" stroke-linejoin="round" stroke-linecap="round" stroke-miterlimit="4" stroke-width="1.8824" d="M2 16h2.1"></path>
<path d="M6.1 6.1v0z"></path>
<path fill="none" stroke="#000" style="stroke: var(--color2, #000)" stroke-linejoin="round" stroke-linecap="round" stroke-miterlimit="4" stroke-width="1.8824" d="M6.1 6.1l1.485 1.485"></path>
<path fill="none" stroke="#000" style="stroke: var(--color2, #000)" stroke-linejoin="round" stroke-linecap="butt" stroke-miterlimit="4" stroke-width="1.8824" d="M16 24c4.418 0 8-3.582 8-8s-3.582-8-8-8c-4.418 0-8 3.582-8 8s3.582 8 8 8z"></path>
</symbol>
<symbol id="icon-support" viewBox="0 0 32 32">
<path d="M26.584 11.048h1.416c0.707 0 1.386 0.281 1.886 0.781s0.781 1.178 0.781 1.886v5.333c0 0.707-0.281 1.386-0.781 1.886s-1.178 0.781-1.886 0.781h-1.416c-0.325 2.578-1.58 4.948-3.528 6.667s-4.458 2.667-7.056 2.667v-2.667c2.122 0 4.157-0.843 5.657-2.343s2.343-3.535 2.343-5.657v-8c0-2.122-0.843-4.157-2.343-5.657s-3.535-2.343-5.657-2.343-4.157 0.843-5.657 2.343c-1.5 1.5-2.343 3.535-2.343 5.657v9.333h-4c-0.707 0-1.386-0.281-1.886-0.781s-0.781-1.178-0.781-1.886v-5.333c0-0.707 0.281-1.386 0.781-1.886s1.178-0.781 1.886-0.781h1.416c0.325-2.578 1.58-4.948 3.529-6.666s4.457-2.666 7.055-2.666c2.598 0 5.107 0.948 7.055 2.666s3.203 4.088 3.529 6.666zM4 13.714v5.333h1.333v-5.333h-1.333zM26.667 13.714v5.333h1.333v-5.333h-1.333zM10.347 21.428l1.413-2.261c1.271 0.796 2.74 1.217 4.24 1.215 1.5 0.002 2.969-0.419 4.24-1.215l1.413 2.261c-1.694 1.062-3.654 1.623-5.653 1.62-1.999 0.003-3.959-0.558-5.653-1.62z"></path>
</symbol>
<symbol id="icon-thermometer" viewBox="0 0 32 32">
<path stroke-linejoin="round" stroke-linecap="round" stroke-miterlimit="4" stroke-width="2.2857" d="M12.762 11.143h6.476M12.762 18.429c-1.235 0.713-2.2 1.813-2.745 3.13s-0.641 2.777-0.272 4.154c0.369 1.377 1.182 2.594 2.313 3.462s2.517 1.338 3.942 1.338c1.426 0 2.811-0.47 3.942-1.338s1.944-2.085 2.313-3.462c0.369-1.377 0.273-2.837-0.272-4.154s-1.511-2.417-2.745-3.13v-13.762c0-0.859-0.341-1.682-0.948-2.29s-1.431-0.948-2.29-0.948c-0.859 0-1.682 0.341-2.29 0.948s-0.948 1.431-0.948 2.29v13.762z"></path>
</symbol>
<symbol id="icon-wallet" viewBox="0 0 32 32">
<path d="M15.888 1.022c0.201-0.252 0.45-0.461 0.732-0.615s0.593-0.252 0.913-0.286 0.644-0.004 0.953 0.088c0.309 0.092 0.596 0.244 0.845 0.448l7.942 6.486c0.437 0.357 0.736 0.854 0.847 1.407s0.027 1.127-0.239 1.625c-0.694-0.212-1.417-0.32-2.143-0.319h-0.73l0.726-0.828-4.183-3.416-3.45 4.246h-3.138l4.702-5.785-1.875-1.531-5.839 7.314h-3.116l7.054-8.833zM22.087 22.029c-0.323 0-0.633 0.128-0.861 0.357s-0.357 0.538-0.357 0.861 0.128 0.633 0.357 0.861c0.228 0.228 0.538 0.357 0.861 0.357h2.435c0.323 0 0.633-0.128 0.861-0.357s0.357-0.538 0.357-0.861-0.128-0.633-0.357-0.861c-0.228-0.228-0.538-0.357-0.861-0.357h-2.435zM3.826 11.072c0-0.323 0.128-0.633 0.357-0.861s0.538-0.357 0.861-0.357h1.359l1.936-2.435h-3.294c-0.969 0-1.898 0.385-2.582 1.070s-1.070 1.614-1.070 2.582v14.609c0 1.614 0.641 3.163 1.783 4.304s2.69 1.783 4.304 1.783h18.261c1.291 0 2.53-0.513 3.443-1.426s1.426-2.152 1.426-3.443v-9.739c0-1.291-0.513-2.53-1.426-3.443s-2.152-1.426-3.443-1.426h-20.696c-0.323 0-0.633-0.128-0.861-0.357s-0.357-0.538-0.357-0.861zM3.826 25.681v-11.163c0.38 0.134 0.791 0.207 1.217 0.207h20.696c0.646 0 1.265 0.257 1.722 0.713s0.713 1.076 0.713 1.722v9.739c0 0.646-0.256 1.265-0.713 1.722s-1.076 0.713-1.722 0.713h-18.261c-0.969 0-1.898-0.385-2.582-1.070s-1.070-1.614-1.070-2.582z"></path>
</symbol>
<symbol id="icon-search-1" viewBox="0 0 32 32">
<path fill="none" stroke="#ffffff" style="stroke: var(--color3, #ffffff)" stroke-linejoin="round" stroke-linecap="round" stroke-miterlimit="4" stroke-width="2.6667" d="M14.667 25.333c5.891 0 10.667-4.776 10.667-10.667s-4.776-10.667-10.667-10.667c-5.891 0-10.667 4.776-10.667 10.667s4.776 10.667 10.667 10.667z"></path>
<path fill="none" stroke="#ffffff" style="stroke: var(--color3, #ffffff)" stroke-linejoin="round" stroke-linecap="round" stroke-miterlimit="4" stroke-width="2.6667" d="M28 28l-5.8-5.8"></path>
</symbol>
</defs>
</svg>
